<mxfile host="app.diagrams.net" modified="2023-08-04T20:33:50.588Z" agent="Mozilla/5.0 (Macintosh; Intel Mac OS X 10_15_7) AppleWebKit/605.1.15 (KHTML, like Gecko) Version/16.6 Safari/605.1.15" etag="7q2GNnAxezide2cXBScR" version="21.6.6" type="device">
  <diagram id="C5RBs43oDa-KdzZeNtuy" name="Page-1">
    <mxGraphModel dx="1204" dy="959" grid="1" gridSize="10" guides="1" tooltips="1" connect="1" arrows="1" fold="1" page="1" pageScale="1" pageWidth="827" pageHeight="1169" math="0" shadow="0">
      <root>
        <mxCell id="WIyWlLk6GJQsqaUBKTNV-0" />
        <mxCell id="WIyWlLk6GJQsqaUBKTNV-1" parent="WIyWlLk6GJQsqaUBKTNV-0" />
        <mxCell id="J6Wc6kGIbpLVLm8B7l7D-17" value="" style="group" vertex="1" connectable="0" parent="WIyWlLk6GJQsqaUBKTNV-1">
          <mxGeometry x="340" y="30" width="120" height="1070" as="geometry" />
        </mxCell>
        <mxCell id="WIyWlLk6GJQsqaUBKTNV-3" value="Начало программы" style="rounded=1;whiteSpace=wrap;html=1;fontSize=12;glass=0;strokeWidth=1;shadow=0;" parent="J6Wc6kGIbpLVLm8B7l7D-17" vertex="1">
          <mxGeometry width="120" height="40" as="geometry" />
        </mxCell>
        <mxCell id="J6Wc6kGIbpLVLm8B7l7D-0" value="def filter_strings(arr): |&lt;br style=&quot;border-color: var(--border-color); text-align: left;&quot;&gt;&lt;span style=&quot;text-align: left;&quot;&gt;| |&lt;/span&gt;&lt;br style=&quot;border-color: var(--border-color); text-align: left;&quot;&gt;&lt;span style=&quot;text-align: left;&quot;&gt;| new_arr = [] |&lt;/span&gt;&lt;br style=&quot;border-color: var(--border-color); text-align: left;&quot;&gt;&lt;span style=&quot;text-align: left;&quot;&gt;| |&lt;/span&gt;&lt;br style=&quot;border-color: var(--border-color); text-align: left;&quot;&gt;&lt;span style=&quot;text-align: left;&quot;&gt;| for s in arr: |&lt;/span&gt;&lt;br style=&quot;border-color: var(--border-color); text-align: left;&quot;&gt;&lt;span style=&quot;text-align: left;&quot;&gt;| if len(s) &amp;lt;= 3: |&lt;/span&gt;&lt;br style=&quot;border-color: var(--border-color); text-align: left;&quot;&gt;&lt;span style=&quot;text-align: left;&quot;&gt;| new_arr.append(s) |&lt;/span&gt;&lt;br style=&quot;border-color: var(--border-color); text-align: left;&quot;&gt;&lt;span style=&quot;text-align: left;&quot;&gt;| |&lt;/span&gt;&lt;br style=&quot;border-color: var(--border-color); text-align: left;&quot;&gt;&lt;span style=&quot;text-align: left;&quot;&gt;| return new_arr |&lt;/span&gt;" style="rounded=0;whiteSpace=wrap;html=1;" vertex="1" parent="J6Wc6kGIbpLVLm8B7l7D-17">
          <mxGeometry y="70" width="120" height="170" as="geometry" />
        </mxCell>
        <mxCell id="J6Wc6kGIbpLVLm8B7l7D-1" value="" style="edgeStyle=orthogonalEdgeStyle;rounded=0;orthogonalLoop=1;jettySize=auto;html=1;" edge="1" parent="J6Wc6kGIbpLVLm8B7l7D-17" source="WIyWlLk6GJQsqaUBKTNV-3" target="J6Wc6kGIbpLVLm8B7l7D-0">
          <mxGeometry relative="1" as="geometry" />
        </mxCell>
        <mxCell id="J6Wc6kGIbpLVLm8B7l7D-3" value="Ввод количества строк (n)&amp;nbsp;" style="rounded=0;whiteSpace=wrap;html=1;" vertex="1" parent="J6Wc6kGIbpLVLm8B7l7D-17">
          <mxGeometry y="270" width="120" height="60" as="geometry" />
        </mxCell>
        <mxCell id="J6Wc6kGIbpLVLm8B7l7D-4" value="" style="edgeStyle=orthogonalEdgeStyle;rounded=0;orthogonalLoop=1;jettySize=auto;html=1;" edge="1" parent="J6Wc6kGIbpLVLm8B7l7D-17" source="J6Wc6kGIbpLVLm8B7l7D-0" target="J6Wc6kGIbpLVLm8B7l7D-3">
          <mxGeometry relative="1" as="geometry" />
        </mxCell>
        <mxCell id="J6Wc6kGIbpLVLm8B7l7D-5" value="Создание пустого массива |&lt;br style=&quot;border-color: var(--border-color); text-align: left;&quot;&gt;&lt;span style=&quot;text-align: left;&quot;&gt;| input_strings = []&lt;/span&gt;" style="rounded=0;whiteSpace=wrap;html=1;" vertex="1" parent="J6Wc6kGIbpLVLm8B7l7D-17">
          <mxGeometry y="360" width="120" height="60" as="geometry" />
        </mxCell>
        <mxCell id="J6Wc6kGIbpLVLm8B7l7D-11" value="" style="edgeStyle=orthogonalEdgeStyle;rounded=0;orthogonalLoop=1;jettySize=auto;html=1;" edge="1" parent="J6Wc6kGIbpLVLm8B7l7D-17" source="J6Wc6kGIbpLVLm8B7l7D-3" target="J6Wc6kGIbpLVLm8B7l7D-5">
          <mxGeometry relative="1" as="geometry" />
        </mxCell>
        <mxCell id="J6Wc6kGIbpLVLm8B7l7D-6" value="Цикл для ввода строк (n раз) |&lt;br style=&quot;border-color: var(--border-color); text-align: left;&quot;&gt;&lt;span style=&quot;text-align: left;&quot;&gt;| |&lt;/span&gt;&lt;br style=&quot;border-color: var(--border-color); text-align: left;&quot;&gt;&lt;span style=&quot;text-align: left;&quot;&gt;| for i in range(n): |&lt;/span&gt;&lt;br style=&quot;border-color: var(--border-color); text-align: left;&quot;&gt;&lt;span style=&quot;text-align: left;&quot;&gt;| input_str = input(...) |&lt;/span&gt;&lt;br style=&quot;border-color: var(--border-color); text-align: left;&quot;&gt;&lt;span style=&quot;text-align: left;&quot;&gt;| input_strings.append(...)&lt;/span&gt;" style="rounded=0;whiteSpace=wrap;html=1;" vertex="1" parent="J6Wc6kGIbpLVLm8B7l7D-17">
          <mxGeometry y="450" width="120" height="100" as="geometry" />
        </mxCell>
        <mxCell id="J6Wc6kGIbpLVLm8B7l7D-12" value="" style="edgeStyle=orthogonalEdgeStyle;rounded=0;orthogonalLoop=1;jettySize=auto;html=1;" edge="1" parent="J6Wc6kGIbpLVLm8B7l7D-17" source="J6Wc6kGIbpLVLm8B7l7D-5" target="J6Wc6kGIbpLVLm8B7l7D-6">
          <mxGeometry relative="1" as="geometry" />
        </mxCell>
        <mxCell id="J6Wc6kGIbpLVLm8B7l7D-7" value="Вызов функции filter_strings |&lt;br style=&quot;border-color: var(--border-color); text-align: left;&quot;&gt;&lt;span style=&quot;text-align: left;&quot;&gt;| и получение результата |&lt;/span&gt;&lt;br style=&quot;border-color: var(--border-color); text-align: left;&quot;&gt;&lt;span style=&quot;text-align: left;&quot;&gt;| |&lt;/span&gt;&lt;br style=&quot;border-color: var(--border-color); text-align: left;&quot;&gt;&lt;span style=&quot;text-align: left;&quot;&gt;| result = filter_strings(...)&lt;/span&gt;" style="rounded=0;whiteSpace=wrap;html=1;" vertex="1" parent="J6Wc6kGIbpLVLm8B7l7D-17">
          <mxGeometry y="610" width="120" height="100" as="geometry" />
        </mxCell>
        <mxCell id="J6Wc6kGIbpLVLm8B7l7D-13" value="" style="edgeStyle=orthogonalEdgeStyle;rounded=0;orthogonalLoop=1;jettySize=auto;html=1;" edge="1" parent="J6Wc6kGIbpLVLm8B7l7D-17" source="J6Wc6kGIbpLVLm8B7l7D-6" target="J6Wc6kGIbpLVLm8B7l7D-7">
          <mxGeometry relative="1" as="geometry" />
        </mxCell>
        <mxCell id="J6Wc6kGIbpLVLm8B7l7D-8" value="Вывод исходного массива строк&amp;nbsp;" style="rounded=0;whiteSpace=wrap;html=1;" vertex="1" parent="J6Wc6kGIbpLVLm8B7l7D-17">
          <mxGeometry y="790" width="120" height="60" as="geometry" />
        </mxCell>
        <mxCell id="J6Wc6kGIbpLVLm8B7l7D-14" value="" style="edgeStyle=orthogonalEdgeStyle;rounded=0;orthogonalLoop=1;jettySize=auto;html=1;" edge="1" parent="J6Wc6kGIbpLVLm8B7l7D-17" source="J6Wc6kGIbpLVLm8B7l7D-7" target="J6Wc6kGIbpLVLm8B7l7D-8">
          <mxGeometry relative="1" as="geometry" />
        </mxCell>
        <mxCell id="J6Wc6kGIbpLVLm8B7l7D-9" value="Вывод нового массива строк" style="rounded=0;whiteSpace=wrap;html=1;" vertex="1" parent="J6Wc6kGIbpLVLm8B7l7D-17">
          <mxGeometry y="900" width="120" height="60" as="geometry" />
        </mxCell>
        <mxCell id="J6Wc6kGIbpLVLm8B7l7D-15" value="" style="edgeStyle=orthogonalEdgeStyle;rounded=0;orthogonalLoop=1;jettySize=auto;html=1;" edge="1" parent="J6Wc6kGIbpLVLm8B7l7D-17" source="J6Wc6kGIbpLVLm8B7l7D-8" target="J6Wc6kGIbpLVLm8B7l7D-9">
          <mxGeometry relative="1" as="geometry" />
        </mxCell>
        <mxCell id="J6Wc6kGIbpLVLm8B7l7D-10" value="Конец программы" style="rounded=0;whiteSpace=wrap;html=1;" vertex="1" parent="J6Wc6kGIbpLVLm8B7l7D-17">
          <mxGeometry y="1010" width="120" height="60" as="geometry" />
        </mxCell>
        <mxCell id="J6Wc6kGIbpLVLm8B7l7D-16" value="" style="edgeStyle=orthogonalEdgeStyle;rounded=0;orthogonalLoop=1;jettySize=auto;html=1;" edge="1" parent="J6Wc6kGIbpLVLm8B7l7D-17" source="J6Wc6kGIbpLVLm8B7l7D-9" target="J6Wc6kGIbpLVLm8B7l7D-10">
          <mxGeometry relative="1" as="geometry" />
        </mxCell>
      </root>
    </mxGraphModel>
  </diagram>
</mxfile>
